HIERARCHY
ROOT Hips
{
	OFFSET 0.00000 0.00000 0.00000
	CHANNELS 6 Xposition Yposition Zposition Zrotation Yrotation Xrotation 
	JOINT LHipJoint
	{
		OFFSET 0 0 0
		CHANNELS 3 Zrotation Yrotation Xrotation
		JOINT LeftUpLeg
		{
			OFFSET 1.52977 -1.71332 0.88991
			CHANNELS 3 Zrotation Yrotation Xrotation
			JOINT LeftLeg
			{
				OFFSET 2.23949 -6.15296 0.00000
				CHANNELS 3 Zrotation Yrotation Xrotation
				JOINT LeftFoot
				{
					OFFSET 2.68396 -7.37412 0.00000
					CHANNELS 3 Zrotation Yrotation Xrotation
					JOINT LeftToeBase
					{
						OFFSET 0.20538 -0.56428 2.52710
						CHANNELS 3 Zrotation Yrotation Xrotation
						End Site
						{
							OFFSET 0.00000 -0.00000 1.29919
						}
					}
				}
			}
		}
	}
	JOINT RHipJoint
	{
		OFFSET 0 0 0
		CHANNELS 3 Zrotation Yrotation Xrotation
		JOINT RightUpLeg
		{
			OFFSET -1.45689 -1.71333 0.88991
			CHANNELS 3 Zrotation Yrotation Xrotation
			JOINT RightLeg
			{
				OFFSET -2.36700 -6.50329 0.00000
				CHANNELS 3 Zrotation Yrotation Xrotation
				JOINT RightFoot
				{
					OFFSET -2.69814 -7.41308 0.00000
					CHANNELS 3 Zrotation Yrotation Xrotation
					JOINT RightToeBase
					{
						OFFSET -0.18734 -0.51471 2.37479
						CHANNELS 3 Zrotation Yrotation Xrotation
						End Site
						{
							OFFSET -0.00000 -0.00000 1.22113
						}
					}
				}
			}
		}
	}
	JOINT LowerBack
	{
		OFFSET 0 0 0
		CHANNELS 3 Zrotation Yrotation Xrotation
		JOINT Spine
		{
			OFFSET 0.04294 2.14638 -0.31163
			CHANNELS 3 Zrotation Yrotation Xrotation
			JOINT Spine1
			{
				OFFSET -0.00400 2.17216 0.01486
				CHANNELS 3 Zrotation Yrotation Xrotation
				JOINT Neck
				{
					OFFSET 0 0 0
					CHANNELS 3 Zrotation Yrotation Xrotation
					JOINT Neck1
					{
						OFFSET 0.03869 1.76598 0.14916
						CHANNELS 3 Zrotation Yrotation Xrotation
						JOINT Head
						{
							OFFSET -0.00760 1.75513 -0.18948
							CHANNELS 3 Zrotation Yrotation Xrotation
							End Site
							{
								OFFSET -0.00601 1.82444 -0.08310
							}
						}
					}
				}
				JOINT LeftShoulder
				{
					OFFSET 0 0 0
					CHANNELS 3 Zrotation Yrotation Xrotation
					JOINT LeftArm
					{
						OFFSET 3.73696 0.92058 0.01733
						CHANNELS 3 Zrotation Yrotation Xrotation
						JOINT LeftForeArm
						{
							OFFSET 5.22771 -0.00000 0.00000
							CHANNELS 3 Zrotation Yrotation Xrotation
							JOINT LeftHand
							{
								OFFSET 3.45251 -0.00000 0.00000
								CHANNELS 3 Zrotation Yrotation Xrotation
								JOINT LeftFingerBase
								{
									OFFSET 0 0 0
									CHANNELS 3 Zrotation Yrotation Xrotation
									JOINT LeftHandIndex1
									{
										OFFSET 0.55212 -0.00000 0.00000
										CHANNELS 3 Zrotation Yrotation Xrotation
										End Site
										{
											OFFSET 0.44513 -0.00000 0.00000
										}
									}
								}
								JOINT LThumb
								{
									OFFSET 0 0 0
									CHANNELS 3 Zrotation Yrotation Xrotation
									End Site
									{
										OFFSET 0.45193 -0.00000 0.45193
									}
								}
							}
						}
					}
				}
				JOINT RightShoulder
				{
					OFFSET 0 0 0
					CHANNELS 3 Zrotation Yrotation Xrotation
					JOINT RightArm
					{
						OFFSET -3.63819 0.83094 -0.13694
						CHANNELS 3 Zrotation Yrotation Xrotation
						JOINT RightForeArm
						{
							OFFSET -5.23980 -0.00000 -0.00000
							CHANNELS 3 Zrotation Yrotation Xrotation
							JOINT RightHand
							{
								OFFSET -3.48042 -0.00000 -0.00000
								CHANNELS 3 Zrotation Yrotation Xrotation
								JOINT RightFingerBase
								{
									OFFSET 0 0 0
									CHANNELS 3 Zrotation Yrotation Xrotation
									JOINT RightHandIndex1
									{
										OFFSET -0.61871 -0.00000 0.00000
										CHANNELS 3 Zrotation Yrotation Xrotation
										End Site
										{
											OFFSET -0.49882 -0.00000 0.00000
										}
									}
								}
								JOINT RThumb
								{
									OFFSET 0 0 0
									CHANNELS 3 Zrotation Yrotation Xrotation
									End Site
									{
										OFFSET -0.50644 -0.00000 0.50644
									}
								}
							}
						}
					}
				}
			}
		}
	}
}
MOTION
Frames: 10
Frame Time: .0083333
3.4783 17.5398 -6.1290 -122.3190 -86.1976 119.4870 0.0000 0.0000 0.0000 -16.0173 0.6829 -16.6768 3.5184 11.4904 33.9521 0.1014 1.9861 -7.0920 1.2275 -7.0266 -19.7942 0.0000 0.0000 0.0000 26.8472 4.6531 -2.6624 -2.9783 -10.6598 31.1408 0.0414 4.1364 3.6603 -0.3244 -3.6611 10.1252 5.9449 -0.6921 1.6127 0.5546 -0.8779 1.2890 -2.7491 -0.4119 0.3439 2.8108 0.5413 -5.4293 0.0175 0.3790 10.1093 -0.4758 0.2641 4.3062 0.0000 -0.0000 0.0000 -86.0811 4.8000 22.7183 15.8727 -25.3477 -3.5913 -0.0000 0.0000 -19.9813 18.2101 11.7797 3.8423 -7.1250 0.0000 -0.0000 -8.0660 42.2221 0.5568 0.0000 -0.0000 0.0000 91.4161 -5.0058 16.2509 -11.4563 18.9844 -1.9218 0.0000 0.0000 8.2209 -19.2980 -9.2656 3.2268 7.1250 -0.0000 -0.0000 6.6787 -39.7013 0.8768
3.5822 17.5220 -6.1316 -123.4340 -86.1296 120.5190 0.0000 0.0000 0.0000 -16.0650 1.0185 -16.0525 3.7867 11.8711 35.2774 0.1235 2.8163 -8.2972 1.2335 -7.0432 -19.8433 0.0000 0.0000 0.0000 26.8424 4.8225 -3.1528 -3.0600 -10.7916 31.5802 0.0472 4.3075 3.6209 -0.3538 -3.8217 10.5757 5.9310 -0.6811 1.5626 0.5823 -0.8667 1.2787 -2.7135 -0.4062 0.3630 2.8554 0.5550 -5.4125 -0.0039 0.3951 10.1332 -0.4901 0.2726 4.3121 0.0000 -0.0000 0.0000 -86.1810 4.8253 22.5372 15.7240 -25.1450 -3.5279 -0.0000 0.0000 -19.8558 18.2445 11.8274 3.8653 -7.1250 0.0000 -0.0000 -8.0448 42.2749 0.5448 0.0000 -0.0000 0.0000 91.3782 -5.0325 16.0207 -11.4022 18.9022 -1.9042 0.0000 0.0000 8.4014 -19.3618 -9.3180 3.2565 7.1250 -0.0000 -0.0000 6.6315 -39.7613 0.8606
3.6858 17.5059 -6.1342 -124.6070 -86.0519 121.6150 0.0000 0.0000 0.0000 -16.1012 1.3818 -15.3895 4.0512 12.2283 36.5444 0.1385 3.5279 -9.2349 1.2298 -7.0330 -19.8132 0.0000 0.0000 0.0000 26.8583 5.0365 -3.6241 -3.1372 -10.9139 31.9900 0.0521 4.4420 3.5735 -0.3823 -3.9708 10.9945 5.9162 -0.6705 1.5084 0.6087 -0.8562 1.2645 -2.6787 -0.4010 0.3803 2.9017 0.5705 -5.3948 -0.0228 0.4129 10.1611 -0.5039 0.2822 4.3194 0.0000 0.0000 0.0000 -86.2802 4.8492 22.3379 15.5637 -24.9256 -3.4600 -0.0000 0.0000 -19.7285 18.2667 11.8666 3.8830 -7.1250 0.0000 -0.0000 -8.0329 42.3178 0.5354 0.0000 0.0000 0.0000 91.3494 -5.0524 15.7929 -11.3558 18.8316 -1.8892 0.0000 0.0000 8.5713 -19.4339 -9.3872 3.2936 7.1250 -0.0000 -0.0000 6.5795 -39.8397 0.8411
3.7893 17.4920 -6.1362 -125.7640 -85.9776 122.7010 0.0000 0.0000 0.0000 -16.1366 1.7577 -14.6773 4.3075 12.5588 37.7385 0.1479 4.0729 -9.9184 1.2223 -7.0122 -19.7516 0.0000 0.0000 0.0000 26.8762 5.2688 -4.0774 -3.2070 -11.0229 32.3571 0.0563 4.5536 3.5247 -0.4042 -4.0816 11.3063 5.8976 -0.6652 1.4462 0.6322 -0.8533 1.2497 -2.6448 -0.3995 0.4007 2.9550 0.5878 -5.3724 -0.0504 0.4337 10.1846 -0.5216 0.2930 4.3243 0.0000 -0.0000 0.0000 -86.3827 4.8690 22.1237 15.3959 -24.6947 -3.3896 -0.0000 0.0000 -19.6064 18.2858 11.8952 3.8965 -7.1250 0.0000 -0.0000 -8.0215 42.3493 0.5283 0.0000 -0.0000 0.0000 91.3205 -5.0610 15.6010 -11.3151 18.7696 -1.8760 0.0000 0.0000 8.6920 -19.5083 -9.4693 3.3358 7.1250 -0.0000 -0.0000 6.5275 -39.9319 0.8195
3.8924 17.4810 -6.1375 -126.8590 -85.9003 123.7360 0.0000 0.0000 0.0000 -16.1633 2.1405 -13.9203 4.5523 12.8611 38.8507 0.1515 4.4514 -10.3407 1.2203 -7.0069 -19.7359 0.0000 0.0000 0.0000 26.9024 5.5157 -4.5046 -3.2657 -11.1132 32.6625 0.0592 4.6318 3.4878 -0.4257 -4.1872 11.6039 5.8835 -0.6645 1.3738 0.6552 -0.8572 1.2324 -2.6140 -0.4013 0.4237 2.9525 0.6188 -5.3982 -0.0168 0.4691 10.2597 -0.5080 0.3122 4.3572 0.0000 -0.0000 0.0000 -86.4874 4.8916 21.9014 15.2259 -24.4598 -3.3189 -0.0000 0.0000 -19.4782 18.2897 11.9294 3.9084 -7.1250 0.0000 -0.0000 -8.0247 42.3851 0.5214 0.0000 -0.0000 0.0000 91.2911 -5.0600 15.4230 -11.2811 18.7178 -1.8651 0.0000 0.0000 8.8074 -19.5465 -9.5690 3.3776 7.1250 -0.0000 -0.0000 6.5095 -40.0398 0.7998
3.9946 17.4737 -6.1379 -127.9930 -85.8374 124.8170 0.0000 0.0000 0.0000 -16.2029 2.5222 -13.1129 4.7822 13.1343 39.8733 0.1500 4.6611 -10.5078 1.2241 -7.0173 -19.7666 0.0000 0.0000 0.0000 26.9138 5.7608 -4.8936 -3.3088 -11.1789 32.8856 0.0609 4.6732 3.4618 -0.4432 -4.2714 11.8415 5.8552 -0.6707 1.2828 0.6749 -0.8714 1.2165 -2.5787 -0.4080 0.4577 2.9548 0.6532 -5.4151 0.0031 0.5104 10.3241 -0.4996 0.3337 4.3846 0.0000 0.0000 0.0000 -86.5985 4.9096 21.6715 15.0519 -24.2184 -3.2472 -0.0000 0.0000 -19.3470 18.2939 11.9747 3.9239 -7.1250 0.0000 -0.0000 -8.0299 42.4324 0.5123 0.0000 0.0000 0.0000 91.2526 -5.0438 15.3046 -11.2500 18.6704 -1.8551 0.0000 0.0000 8.8506 -19.5743 -9.6596 3.4144 7.1250 -0.0000 -0.0000 6.4993 -40.1372 0.7829
4.0956 17.4705 -6.1372 -128.9850 -85.7734 125.7620 0.0000 0.0000 0.0000 -16.2332 2.9014 -12.2557 4.9955 13.3788 40.8034 0.1432 4.7109 -10.4182 1.2379 -7.0554 -19.8795 0.0000 0.0000 0.0000 26.9317 5.9924 -5.2320 -3.3331 -11.2157 33.0107 0.0609 4.6710 3.4490 -0.4592 -4.3470 12.0551 5.8369 -0.6838 1.1762 0.6956 -0.8961 1.2003 -2.5481 -0.4197 0.4991 2.9587 0.6899 -5.4225 0.0126 0.5564 10.3837 -0.4947 0.3571 4.4086 0.0000 0.0000 0.0000 -86.7127 4.9339 21.4512 14.8802 -23.9789 -3.1771 -0.0000 0.0000 -19.2216 18.2969 12.0252 3.9409 -7.1250 0.0000 -0.0000 -8.0371 42.4850 0.5023 0.0000 0.0000 0.0000 91.2111 -5.0257 15.2138 -11.2314 18.6421 -1.8492 0.0000 0.0000 8.8743 -19.5606 -9.7346 3.4381 7.1250 -0.0000 -0.0000 6.5228 -40.2148 0.7733
4.1952 17.4710 -6.1359 -129.7340 -85.6915 126.4680 0.0000 0.0000 0.0000 -16.2304 3.2813 -11.3558 5.1910 13.5958 41.6416 0.1307 4.6217 -10.0723 1.2636 -7.1255 -20.0877 0.0000 0.0000 0.0000 26.9819 6.2187 -5.5083 -3.3370 -11.2215 33.0306 0.0591 4.6133 3.4420 -0.4728 -4.4099 12.2327 5.8423 -0.7016 1.0594 0.7237 -0.9275 1.1810 -2.5233 -0.4347 0.5425 2.9496 0.7312 -5.4310 0.0288 0.6084 10.4561 -0.4848 0.3833 4.4374 0.0000 0.0000 0.0000 -86.8308 4.9641 21.2320 14.7080 -23.7378 -3.1075 -0.0000 0.0000 -19.0752 18.2857 12.0894 3.9589 -7.1250 0.0000 -0.0000 -8.0599 42.5504 0.4906 0.0000 0.0000 0.0000 91.1665 -5.0136 15.1616 -11.2253 18.6327 -1.8473 0.0000 0.0000 8.8552 -19.5375 -9.7692 3.4457 7.1250 -0.0000 -0.0000 6.5483 -40.2491 0.7708
4.2937 17.4749 -6.1339 -130.3230 -85.6134 127.0200 0.0000 0.0000 0.0000 -16.2172 3.6507 -10.4186 5.3684 13.7871 42.3911 0.1141 4.4037 -9.4988 1.2906 -7.1983 -20.3041 0.0000 0.0000 0.0000 27.0397 6.4322 -5.7311 -3.3215 -11.1982 32.9513 0.0555 4.5037 3.4389 -0.4835 -4.4587 12.3708 5.8524 -0.7246 0.9345 0.7525 -0.9662 1.1553 -2.5004 -0.4534 0.5830 2.9634 0.7684 -5.4085 0.0123 0.6578 10.5107 -0.4902 0.4073 4.4538 -0.0000 -0.0000 0.0000 -86.9480 5.0045 21.0365 14.5400 -23.5014 -3.0401 -0.0000 0.0000 -18.9311 18.2864 12.1480 3.9779 -7.1250 0.0000 -0.0000 -8.0709 42.6111 0.4791 -0.0000 -0.0000 0.0000 91.1219 -5.0139 15.1363 -11.2334 18.6451 -1.8498 0.0000 0.0000 8.8160 -19.4906 -9.7954 3.4459 7.1250 -0.0000 -0.0000 6.5931 -40.2724 0.7723
4.3917 17.4814 -6.1311 -130.6410 -85.5388 127.3070 0.0000 0.0000 0.0000 -16.1881 4.0025 -9.4505 5.5277 13.9545 43.0556 0.0938 4.0899 -8.7115 1.3240 -7.2873 -20.5694 0.0000 0.0000 0.0000 27.1093 6.6349 -5.9102 -3.2902 -11.1507 32.7898 0.0507 4.3510 3.4326 -0.4928 -4.5010 12.4906 5.8776 -0.7531 0.8034 0.7822 -1.0124 1.1248 -2.4853 -0.4760 0.6214 2.9855 0.8015 -5.3698 -0.0192 0.7029 10.5603 -0.5024 0.4286 4.4652 -0.0000 -0.0000 0.0000 -87.0653 5.0446 20.8580 14.3737 -23.2664 -2.9741 -0.0000 0.0000 -18.7772 18.3055 12.2061 4.0011 -7.1250 0.0000 -0.0000 -8.0655 42.6733 0.4663 -0.0000 -0.0000 0.0000 91.0792 -5.0272 15.1320 -11.2575 18.6819 -1.8576 0.0000 0.0000 8.7630 -19.4290 -9.8143 3.4407 7.1250 -0.0000 -0.0000 6.6498 -40.2871 0.7766
